Coordinates
version=1
nRows=13
nColumns=40
inDegrees=yes

Units are S.I. units (second, meters, Newtons, ...)
If the header above contains a line with 'inDegrees', this indicates whether rotational values are in degrees (yes) or radians (no).

endheader
time	pelvis_tilt	pelvis_list	pelvis_rotation	pelvis_tx	pelvis_ty	pelvis_tz	hip_flexion_r	hip_adduction_r	hip_rotation_r	knee_angle_r	knee_angle_r_beta	ankle_angle_r	subtalar_angle_r	mtp_angle_r	hip_flexion_l	hip_adduction_l	hip_rotation_l	knee_angle_l	knee_angle_l_beta	ankle_angle_l	subtalar_angle_l	mtp_angle_l	lumbar_extension	lumbar_bending	lumbar_rotation	arm_flex_r	arm_add_r	arm_rot_r	elbow_flex_r	pro_sup_r	wrist_flex_r	wrist_dev_r	arm_flex_l	arm_add_l	arm_rot_l	elbow_flex_l	pro_sup_l	wrist_flex_l	wrist_dev_l
      0.71500000	     -0.96690198	     -1.53501143	     -8.74249130	      0.25429695	      0.89189314	      0.26912852	    -19.96839371	     -2.06007944	    -11.07199372	     12.88327224	      0.22485552	      3.11233895	      8.67156352	      0.00000000	     25.70651668	     -8.83816042	    -27.06394352	      7.83889471	      0.13681452	     -4.32888268	     12.98251668	      0.00000000	     -2.89652822	     -1.57326796	      2.76812226	     26.99080569	    -11.92349863	     26.99080569	     76.66273908	     43.86321448	      0.00000000	      0.00000000	     26.99080569	    -11.92349863	     26.99080569	     76.66273908	     43.86321448	      0.00000000	      0.00000000
      0.72000000	     -0.76684684	     -1.05253277	     -9.00717464	      0.26233432	      0.89174354	      0.26863518	    -20.23734332	     -2.85663816	    -10.82409067	     13.48012341	      0.23527254	      2.41801588	      8.04716714	      0.00000000	     25.30933884	     -8.39282438	    -27.37122739	      8.29119166	      0.14470859	     -4.79100354	     12.03720720	      0.00000000	     -2.92249748	     -2.19072311	      2.98595779	     27.00906440	    -11.92856548	     27.00906440	     76.65737909	     43.87336514	      0.00000000	      0.00000000	     27.00906440	    -11.92856548	     27.00906440	     76.65737909	     43.87336514	      0.00000000	      0.00000000
      0.72500000	     -0.58236391	     -0.68058151	     -9.17541840	      0.27045030	      0.89166123	      0.26792710	    -20.49785066	     -3.52389144	    -10.71738481	     14.03986731	      0.24504191	      1.39892550	      7.62313504	      0.00000000	     24.98426770	     -8.05124175	    -27.63054006	      8.86602365	      0.15474130	     -5.36101432	     11.24384475	      0.00000000	     -2.93231359	     -2.64930253	      3.15172798	     27.01817445	    -11.93109228	     27.01817445	     76.65470945	     43.87839880	      0.00000000	      0.00000000	     27.01817445	    -11.93109228	     27.01817445	     76.65470945	     43.87839880	      0.00000000	      0.00000000
      0.73000000	     -0.26657281	     -0.07129915	     -9.53992721	      0.27851828	      0.89192807	      0.26773824	    -20.77755828	     -4.47762728	    -10.37556606	     14.73794475	      0.25722566	      0.50793277	      6.74326052	      0.00000000	     24.28181526	     -7.40203854	    -27.80266999	      8.91939779	      0.15567286	     -6.32837727	     10.02780835	      0.00000000	     -3.03166579	     -3.40326772	      3.67214633	     27.07093093	    -11.94571104	     27.07093093	     76.63930494	     43.90715905	      0.00000000	      0.00000000	     27.07093093	    -11.94571104	     27.07093093	     76.63930494	     43.90715905	      0.00000000	      0.00000000
      0.73500000	     -0.09174469	      0.27291918	     -9.58165300	      0.28659458	      0.89197124	      0.26689493	    -21.00301264	     -5.05932068	    -10.27382271	     15.31468713	      0.26729171	     -0.61407577	      6.37925795	      0.00000000	     24.03700749	     -7.07186827	    -27.85573148	      9.64418531	      0.16832279	     -6.87827897	      9.43033455	      0.00000000	     -3.06507580	     -3.83447023	      3.82787367	     27.07750680	    -11.94753124	     27.07750680	     76.63739204	     43.91069736	      0.00000000	      0.00000000	     27.07750680	    -11.94753124	     27.07750680	     76.63739204	     43.91069736	      0.00000000	      0.00000000
      0.74000000	      0.14034334	      0.80287467	     -9.78074456	      0.29470254	      0.89218354	      0.26635494	    -21.09760090	     -5.88123234	    -10.15360677	     16.19283733	      0.28261833	     -1.83018554	      5.15044241	      0.00000000	     23.67303113	     -6.57938846	    -28.21696216	     10.24689081	      0.17884198	     -7.59797756	      8.33430292	      0.00000000	     -3.06311557	     -4.47357657	      4.13217252	     27.10189836	    -11.95428009	     27.10189836	     76.63030796	     43.92373901	      0.00000000	      0.00000000	     27.10189836	    -11.95428009	     27.10189836	     76.63030796	     43.92373901	      0.00000000	      0.00000000
      0.74500000	      0.36879540	      1.23330756	     -9.88415667	      0.30276242	      0.89253711	      0.26568239	    -21.20367884	     -6.56770745	    -10.07069336	     17.00848723	      0.29685410	     -3.24261969	      4.22734625	      0.00000000	     23.33096662	     -6.16062759	    -28.34705232	     10.88649322	      0.19000515	     -8.34030621	      7.48157029	      0.00000000	     -3.11583811	     -4.99029062	      4.42092996	     27.12695726	    -11.96120799	     27.12695726	     76.62305145	     43.93699485	      0.00000000	      0.00000000	     27.12695726	    -11.96120799	     27.12695726	     76.62305145	     43.93699485	      0.00000000	      0.00000000
      0.75000000	      0.60831254	      1.58088417	     -9.89372609	      0.31085278	      0.89294504	      0.26482480	    -21.33456231	     -7.15932319	    -10.09445623	     17.80253457	      0.31071284	     -4.75185586	      3.63316802	      0.00000000	     23.02755939	     -5.82598548	    -28.42533701	     11.65545241	      0.20342602	     -8.95173416	      6.86018057	      0.00000000	     -3.19573592	     -5.41907131	      4.58832203	     27.13520809	    -11.96348759	     27.13520809	     76.62066750	     43.94132590	      0.00000000	      0.00000000	     27.13520809	    -11.96348759	     27.13520809	     76.62066750	     43.94132590	      0.00000000	      0.00000000
      0.75500000	      0.78641673	      2.04828013	     -9.92759145	      0.31889796	      0.89333982	      0.26411222	    -21.23461530	     -7.84282505	    -10.09268317	     18.88152375	      0.32954476	     -6.32860043	      2.21595678	      0.00000000	     22.77372168	     -5.36531133	    -28.51548102	     12.34424724	      0.21544776	     -9.59772464	      6.02333467	      0.00000000	     -3.18302400	     -5.97109741	      4.85679308	     27.15652187	    -11.96937378	     27.15652187	     76.61451939	     43.95244312	      0.00000000	      0.00000000	     27.15652187	    -11.96937378	     27.15652187	     76.61451939	     43.95244312	      0.00000000	      0.00000000
      0.76000000	      0.98606893	      2.42387519	     -9.89291112	      0.32693195	      0.89383027	      0.26324171	    -21.15797462	     -8.43255348	    -10.15746321	     19.94374101	      0.34808395	     -8.02825408	      1.11678812	      0.00000000	     22.50396494	     -4.97465928	    -28.49436469	     13.06911761	      0.22809913	    -10.15389171	      5.32746755	      0.00000000	     -3.22103935	     -6.40654339	      5.07695481	     27.17657485	    -11.97490798	     27.17657485	     76.60874939	     43.96280835	      0.00000000	      0.00000000	     27.17657485	    -11.97490798	     27.17657485	     76.60874939	     43.96280835	      0.00000000	      0.00000000
      0.76500000	      1.15952063	      2.80523671	     -9.80898864	      0.33495610	      0.89434336	      0.26234035	    -20.99078905	     -9.01277891	    -10.29733004	     21.11762515	      0.36857209	     -9.78509808	     -0.08452972	      0.00000000	     22.27265948	     -4.56443771	    -28.40149918	     13.80885742	      0.24101003	    -10.61896982	      4.67858623	      0.00000000	     -3.23862680	     -6.83849511	      5.27346744	     27.19634749	    -11.98036133	     27.19634749	     76.60307321	     43.97294304	      0.00000000	      0.00000000	     27.19634749	    -11.98036133	     27.19634749	     76.60307321	     43.97294304	      0.00000000	      0.00000000
      0.77000000	      1.29078225	      3.16101068	     -9.70855306	      0.34298596	      0.89483054	      0.26136591	    -20.70151615	     -9.57490276	    -10.49684222	     22.42054050	      0.39131225	    -11.59785537	     -1.34575032	      0.00000000	     22.06918845	     -4.16108036	    -28.24364235	     14.52730165	      0.25354925	    -10.99748121	      4.02241691	      0.00000000	     -3.20669904	     -7.22944687	      5.44049082	     27.22073333	    -11.98708210	     27.22073333	     76.59609130	     43.98532157	      0.00000000	      0.00000000	     27.22073333	    -11.98708210	     27.22073333	     76.59609130	     43.98532157	      0.00000000	      0.00000000
      0.77500000	      1.45038447	      3.51698161	     -9.54496128	      0.35099195	      0.89537492	      0.26030270	    -20.39755274	    -10.14457569	    -10.81528665	     23.80698909	      0.41551034	    -13.45820357	     -2.54465271	      0.00000000	     21.84094123	     -3.72608401	    -28.05038204	     15.26029904	      0.26634246	    -11.25418541	      3.43215931	      0.00000000	     -3.21549290	     -7.62156328	      5.56519566	     27.24060685	    -11.99255514	     27.24060685	     76.59041684	     43.99531028	      0.00000000	      0.00000000	     27.24060685	    -11.99255514	     27.24060685	     76.59041684	     43.99531028	      0.00000000	      0.00000000
